<svg id="visual" viewBox="0 0 960 540" width="960" height="540" xmlns="http://www.w3.org/2000/svg" xmlns:xlink="http://www.w3.org/1999/xlink" version="1.1"><rect x="0" y="0" width="960" height="540" fill="#202731"></rect><path d="M0 240L26.7 231.2C53.3 222.3 106.7 204.7 160 201.2C213.3 197.7 266.7 208.3 320 212.5C373.3 216.7 426.7 214.3 480 210.3C533.3 206.3 586.7 200.7 640 207C693.3 213.3 746.7 231.7 800 229.3C853.3 227 906.7 204 933.3 192.5L960 181L960 0L933.3 0C906.7 0 853.3 0 800 0C746.7 0 693.3 0 640 0C586.7 0 533.3 0 480 0C426.7 0 373.3 0 320 0C266.7 0 213.3 0 160 0C106.7 0 53.3 0 26.7 0L0 0Z" fill="#5e49d5"></path><path d="M0 165L26.7 163.8C53.3 162.7 106.7 160.3 160 159C213.3 157.7 266.7 157.3 320 159.2C373.3 161 426.7 165 480 170C533.3 175 586.7 181 640 181.2C693.3 181.3 746.7 175.7 800 173.8C853.3 172 906.7 174 933.3 175L960 176L960 0L933.3 0C906.7 0 853.3 0 800 0C746.7 0 693.3 0 640 0C586.7 0 533.3 0 480 0C426.7 0 373.3 0 320 0C266.7 0 213.3 0 160 0C106.7 0 53.3 0 26.7 0L0 0Z" fill="#b529ba"></path><path d="M0 123L26.7 118.5C53.3 114 106.7 105 160 106.7C213.3 108.3 266.7 120.7 320 127C373.3 133.3 426.7 133.7 480 132.7C533.3 131.7 586.7 129.3 640 123.2C693.3 117 746.7 107 800 99.3C853.3 91.7 906.7 86.3 933.3 83.7L960 81L960 0L933.3 0C906.7 0 853.3 0 800 0C746.7 0 693.3 0 640 0C586.7 0 533.3 0 480 0C426.7 0 373.3 0 320 0C266.7 0 213.3 0 160 0C106.7 0 53.3 0 26.7 0L0 0Z" fill="#e60092"></path><path d="M0 76L26.7 70.7C53.3 65.3 106.7 54.7 160 50.7C213.3 46.7 266.7 49.3 320 53.3C373.3 57.3 426.7 62.7 480 65C533.3 67.3 586.7 66.7 640 68.2C693.3 69.7 746.7 73.3 800 73.3C853.3 73.3 906.7 69.7 933.3 67.8L960 66L960 0L933.3 0C906.7 0 853.3 0 800 0C746.7 0 693.3 0 640 0C586.7 0 533.3 0 480 0C426.7 0 373.3 0 320 0C266.7 0 213.3 0 160 0C106.7 0 53.3 0 26.7 0L0 0Z" fill="#ff0066"></path></svg>