<svg id="visual" viewBox="0 0 960 540" width="960" height="540" xmlns="http://www.w3.org/2000/svg" xmlns:xlink="http://www.w3.org/1999/xlink" version="1.1"><rect x="0" y="0" width="960" height="540" fill="#202731"></rect><path d="M0 203L22.8 205.7C45.7 208.3 91.3 213.7 137 215.3C182.7 217 228.3 215 274 209.8C319.7 204.7 365.3 196.3 411.2 193.5C457 190.7 503 193.3 548.8 192.2C594.7 191 640.3 186 686 185.3C731.7 184.7 777.3 188.3 823 181.8C868.7 175.3 914.3 158.7 937.2 150.3L960 142L960 0L937.2 0C914.3 0 868.7 0 823 0C777.3 0 731.7 0 686 0C640.3 0 594.7 0 548.8 0C503 0 457 0 411.2 0C365.3 0 319.7 0 274 0C228.3 0 182.7 0 137 0C91.3 0 45.7 0 22.8 0L0 0Z" fill="#fa7268"></path><path d="M0 175L22.8 172.5C45.7 170 91.3 165 137 164.3C182.7 163.7 228.3 167.3 274 160.7C319.7 154 365.3 137 411.2 136.2C457 135.3 503 150.7 548.8 150.2C594.7 149.7 640.3 133.3 686 129.2C731.7 125 777.3 133 823 143.2C868.7 153.3 914.3 165.7 937.2 171.8L960 178L960 0L937.2 0C914.3 0 868.7 0 823 0C777.3 0 731.7 0 686 0C640.3 0 594.7 0 548.8 0C503 0 457 0 411.2 0C365.3 0 319.7 0 274 0C228.3 0 182.7 0 137 0C91.3 0 45.7 0 22.8 0L0 0Z" fill="#f3665b"></path><path d="M0 88L22.8 86.3C45.7 84.7 91.3 81.3 137 90.7C182.7 100 228.3 122 274 123.2C319.7 124.3 365.3 104.7 411.2 96.8C457 89 503 93 548.8 96.2C594.7 99.3 640.3 101.7 686 99.7C731.7 97.7 777.3 91.3 823 97C868.7 102.7 914.3 120.3 937.2 129.2L960 138L960 0L937.2 0C914.3 0 868.7 0 823 0C777.3 0 731.7 0 686 0C640.3 0 594.7 0 548.8 0C503 0 457 0 411.2 0C365.3 0 319.7 0 274 0C228.3 0 182.7 0 137 0C91.3 0 45.7 0 22.8 0L0 0Z" fill="#ec594d"></path><path d="M0 100L22.8 97.2C45.7 94.3 91.3 88.7 137 84.7C182.7 80.7 228.3 78.3 274 79.8C319.7 81.3 365.3 86.7 411.2 85.5C457 84.3 503 76.7 548.8 73.3C594.7 70 640.3 71 686 73.2C731.7 75.3 777.3 78.7 823 80.5C868.7 82.3 914.3 82.7 937.2 82.8L960 83L960 0L937.2 0C914.3 0 868.7 0 823 0C777.3 0 731.7 0 686 0C640.3 0 594.7 0 548.8 0C503 0 457 0 411.2 0C365.3 0 319.7 0 274 0C228.3 0 182.7 0 137 0C91.3 0 45.7 0 22.8 0L0 0Z" fill="#e54c3f"></path><path d="M0 40L22.8 37.7C45.7 35.3 91.3 30.7 137 28.7C182.7 26.7 228.3 27.3 274 31.5C319.7 35.7 365.3 43.3 411.2 46.7C457 50 503 49 548.8 47.2C594.7 45.3 640.3 42.7 686 40.8C731.7 39 777.3 38 823 38C868.7 38 914.3 39 937.2 39.5L960 40L960 0L937.2 0C914.3 0 868.7 0 823 0C777.3 0 731.7 0 686 0C640.3 0 594.7 0 548.8 0C503 0 457 0 411.2 0C365.3 0 319.7 0 274 0C228.3 0 182.7 0 137 0C91.3 0 45.7 0 22.8 0L0 0Z" fill="#dd3f31"></path></svg>